<svg width="32" height="32" viewBox="0 0 32 32" fill="none" xmlns="http://www.w3.org/2000/svg">
<path d="M15.9903 0C22.6677 0 24.6209 0.00687299 25.0008 0.0381138C26.371 0.152455 27.2239 0.368017 28.153 0.831006C28.869 1.18653 29.4339 1.59891 29.9906 2.17686C31.0059 3.2303 31.6207 4.5268 31.8432 6.0676C31.9513 6.8155 31.9831 6.96858 31.9894 10.79C31.9919 12.064 31.9894 13.7403 31.9894 15.9891C31.9894 22.6634 31.9819 24.6147 31.95 24.9939C31.8394 26.3279 31.6301 27.167 31.1871 28.0849C30.3405 29.8419 28.7241 31.1609 26.8203 31.6532C26.1611 31.8232 25.4325 31.9163 24.4978 31.9606C24.1017 31.9781 20.0641 31.99 16.024 31.99C11.984 31.99 7.94454 31.985 7.55778 31.9656C6.47498 31.9144 5.84641 31.83 5.15161 31.6507C3.2353 31.1559 1.64827 29.8569 0.78477 28.0749C0.350522 27.1789 0.130586 26.3079 0.0306154 25.0439C0.00874682 24.7684 0 20.3734 0 15.9847C0 11.5953 0.00999707 7.20851 0.0312408 6.93297C0.131836 5.64834 0.352396 4.78422 0.80039 3.87136C1.16841 3.12408 1.57641 2.5655 2.16936 1.99504C3.2278 0.984086 4.5218 0.368642 6.06385 0.146207C6.81175 0.0387386 6.96046 0.00687298 10.7837 0H15.9903Z" fill="url(#paint0_radial_77_40)"/>
<path d="M15.9903 0C22.6677 0 24.6209 0.00687299 25.0008 0.0381138C26.371 0.152455 27.2239 0.368017 28.153 0.831006C28.869 1.18653 29.4339 1.59891 29.9906 2.17686C31.0059 3.2303 31.6207 4.5268 31.8432 6.0676C31.9513 6.8155 31.9831 6.96858 31.9894 10.79C31.9919 12.064 31.9894 13.7403 31.9894 15.9891C31.9894 22.6634 31.9819 24.6147 31.95 24.9939C31.8394 26.3279 31.6301 27.167 31.1871 28.0849C30.3405 29.8419 28.7241 31.1609 26.8203 31.6532C26.1611 31.8232 25.4325 31.9163 24.4978 31.9606C24.1017 31.9781 20.0641 31.99 16.024 31.99C11.984 31.99 7.94454 31.985 7.55778 31.9656C6.47498 31.9144 5.84641 31.83 5.15161 31.6507C3.2353 31.1559 1.64827 29.8569 0.78477 28.0749C0.350522 27.1789 0.130586 26.3079 0.0306154 25.0439C0.00874682 24.7684 0 20.3734 0 15.9847C0 11.5953 0.00999707 7.20851 0.0312408 6.93297C0.131836 5.64834 0.352396 4.78422 0.80039 3.87136C1.16841 3.12408 1.57641 2.5655 2.16936 1.99504C3.2278 0.984086 4.5218 0.368642 6.06385 0.146207C6.81175 0.0387386 6.96046 0.00687298 10.7837 0H15.9903Z" fill="url(#paint1_radial_77_40)"/>
<path d="M15.9903 0C22.6677 0 24.6209 0.00687299 25.0008 0.0381138C26.371 0.152455 27.2239 0.368017 28.153 0.831006C28.869 1.18653 29.4339 1.59891 29.9906 2.17686C31.0059 3.2303 31.6207 4.5268 31.8432 6.0676C31.9513 6.8155 31.9831 6.96858 31.9894 10.79C31.9919 12.064 31.9894 13.7403 31.9894 15.9891C31.9894 22.6634 31.9819 24.6147 31.95 24.9939C31.8394 26.3279 31.6301 27.167 31.1871 28.0849C30.3405 29.8419 28.7241 31.1609 26.8203 31.6532C26.1611 31.8232 25.4325 31.9163 24.4978 31.9606C24.1017 31.9781 20.0641 31.99 16.024 31.99C11.984 31.99 7.94454 31.985 7.55778 31.9656C6.47498 31.9144 5.84641 31.83 5.15161 31.6507C3.2353 31.1559 1.64827 29.8569 0.78477 28.0749C0.350522 27.1789 0.130586 26.3079 0.0306154 25.0439C0.00874682 24.7684 0 20.3734 0 15.9847C0 11.5953 0.00999707 7.20851 0.0312408 6.93297C0.131836 5.64834 0.352396 4.78422 0.80039 3.87136C1.16841 3.12408 1.57641 2.5655 2.16936 1.99504C3.2278 0.984086 4.5218 0.368642 6.06385 0.146207C6.81175 0.0387386 6.96046 0.00687298 10.7837 0H15.9903Z" fill="url(#paint2_radial_77_40)"/>
<path d="M15.9903 0C22.6677 0 24.6209 0.00687299 25.0008 0.0381138C26.371 0.152455 27.2239 0.368017 28.153 0.831006C28.869 1.18653 29.4339 1.59891 29.9906 2.17686C31.0059 3.2303 31.6207 4.5268 31.8432 6.0676C31.9513 6.8155 31.9831 6.96858 31.9894 10.79C31.9919 12.064 31.9894 13.7403 31.9894 15.9891C31.9894 22.6634 31.9819 24.6147 31.95 24.9939C31.8394 26.3279 31.6301 27.167 31.1871 28.0849C30.3405 29.8419 28.7241 31.1609 26.8203 31.6532C26.1611 31.8232 25.4325 31.9163 24.4978 31.9606C24.1017 31.9781 20.0641 31.99 16.024 31.99C11.984 31.99 7.94454 31.985 7.55778 31.9656C6.47498 31.9144 5.84641 31.83 5.15161 31.6507C3.2353 31.1559 1.64827 29.8569 0.78477 28.0749C0.350522 27.1789 0.130586 26.3079 0.0306154 25.0439C0.00874682 24.7684 0 20.3734 0 15.9847C0 11.5953 0.00999707 7.20851 0.0312408 6.93297C0.131836 5.64834 0.352396 4.78422 0.80039 3.87136C1.16841 3.12408 1.57641 2.5655 2.16936 1.99504C3.2278 0.984086 4.5218 0.368642 6.06385 0.146207C6.81175 0.0387386 6.96046 0.00687298 10.7837 0H15.9903Z" fill="url(#paint3_radial_77_40)"/>
<path d="M15.9891 4.10754C19.2194 4.10754 19.6249 4.12191 20.8933 4.1794C22.1598 4.23751 23.0239 4.43745 23.7799 4.73174C24.5622 5.0354 25.2257 5.44153 25.8868 6.10196C26.5485 6.76239 26.9546 7.42595 27.2595 8.20697C27.5544 8.963 27.755 9.82712 27.8118 11.0917C27.8687 12.3595 27.8837 12.765 27.8837 15.9928C27.8837 19.2206 27.8693 19.6249 27.8118 20.8926C27.7537 22.1579 27.5532 23.0214 27.2595 23.7774C26.9552 24.559 26.5491 25.222 25.8874 25.883C25.2264 26.5441 24.5628 26.9515 23.7812 27.2551C23.0245 27.5488 22.1598 27.7494 20.8939 27.8075C19.6249 27.8649 19.22 27.8793 15.9897 27.8793C12.7594 27.8793 12.3551 27.8649 11.0861 27.8075C9.81963 27.7494 8.95426 27.5494 8.19761 27.2551C7.41534 26.9515 6.75303 26.5447 6.09197 25.8837C5.43029 25.2232 5.02416 24.5597 4.71925 23.7787C4.42684 23.0226 4.22627 22.1585 4.16691 20.8939C4.11005 19.6261 4.09506 19.2219 4.09506 15.9941C4.09506 12.7663 4.11005 12.3607 4.16691 11.093C4.22627 9.82774 4.42684 8.96424 4.71925 8.20822C5.02416 7.42657 5.43029 6.76364 6.09197 6.10258C6.75365 5.44153 7.41533 5.0354 8.19823 4.73174C8.95676 4.43807 9.8215 4.23751 11.0874 4.1794C12.3564 4.12191 12.76 4.10754 15.9916 4.10754H15.9891ZM17.0556 6.24942C16.7388 6.24879 16.3858 6.24942 15.9884 6.24942C12.8125 6.24942 12.4364 6.26066 11.1824 6.31752C10.0227 6.37063 9.3935 6.56432 8.97425 6.72678C8.41942 6.94234 8.02328 7.19976 7.60715 7.61589C7.19103 8.03202 6.93298 8.42815 6.71679 8.98299C6.55371 9.40162 6.36002 10.0302 6.30691 11.1892C6.25005 12.442 6.23755 12.8187 6.23755 15.9903C6.23755 19.1625 6.25005 19.5386 6.30691 20.7914C6.36002 21.9504 6.55371 22.579 6.71679 22.9976C6.93235 23.5525 7.1904 23.9474 7.60715 24.3629C8.02328 24.779 8.41879 25.0364 8.97425 25.252C9.39288 25.4157 10.0227 25.6087 11.1824 25.6612C12.4364 25.7181 12.8131 25.7306 15.9884 25.7306C19.1644 25.7306 19.5412 25.7181 20.7945 25.6612C21.9542 25.6075 22.5834 25.4144 23.0033 25.2513C23.5581 25.0358 23.9549 24.7784 24.371 24.3622C24.7871 23.9461 25.0452 23.5512 25.2613 22.9964C25.4244 22.5778 25.6181 21.9492 25.6712 20.7901C25.7281 19.5374 25.7393 19.1606 25.7393 15.9872C25.7393 12.8131 25.7281 12.4388 25.6712 11.1861C25.6181 10.0271 25.4244 9.39849 25.2613 8.97924C25.0458 8.4244 24.7877 8.02827 24.371 7.61214C23.9549 7.19601 23.5581 6.93859 23.0033 6.7224C22.584 6.5587 21.9542 6.36563 20.7945 6.31252C19.6974 6.26316 19.2719 6.24817 17.055 6.24567L17.0556 6.24942ZM9.63968 8.22321C10.4276 8.22321 11.0668 8.86115 11.0668 9.64904C11.0668 10.4363 10.4276 11.0755 9.63968 11.0755C8.85179 11.0755 8.2126 10.4369 8.2126 9.64904C8.2126 8.86115 8.85179 8.22259 9.63968 8.22321ZM15.9891 9.8896C19.3625 9.8896 22.0973 12.6225 22.0973 15.9934C22.0973 19.3643 19.3625 22.096 15.9891 22.096C12.6157 22.096 9.88211 19.3643 9.88211 15.9934C9.88211 12.6225 12.6157 9.8896 15.9891 9.8896ZM15.9891 12.0315C13.7997 12.0315 12.024 13.8053 12.024 15.9934C12.024 18.1815 13.7991 19.9554 15.9891 19.9554C18.1791 19.9554 19.9542 18.1815 19.9542 15.9934C19.9535 13.8047 18.1784 12.0315 15.9891 12.0315Z" fill="white"/>
<defs>
<radialGradient id="paint0_radial_77_40" cx="0" cy="0" r="1" gradientUnits="userSpaceOnUse" gradientTransform="translate(30.9577 14.9946) rotate(164.251) scale(20.4403 14.7262)">
<stop stop-color="#FF005F"/>
<stop offset="1" stop-color="#FC01D8"/>
</radialGradient>
<radialGradient id="paint1_radial_77_40" cx="0" cy="0" r="1" gradientUnits="userSpaceOnUse" gradientTransform="translate(8.49716 34.4546) rotate(-90) scale(25.5355 27.0927)">
<stop stop-color="#FFCC00"/>
<stop offset="0.1242" stop-color="#FFCC00"/>
<stop offset="0.5672" stop-color="#FE4A05"/>
<stop offset="0.6942" stop-color="#FF0F3F"/>
<stop offset="1" stop-color="#FE0657" stop-opacity="0"/>
</radialGradient>
<radialGradient id="paint2_radial_77_40" cx="0" cy="0" r="1" gradientUnits="userSpaceOnUse" gradientTransform="translate(16.8033 31.5394) rotate(-59.8697) scale(10.5592 13.7469)">
<stop stop-color="#FFCC00"/>
<stop offset="1" stop-color="#FFCC00" stop-opacity="0"/>
</radialGradient>
<radialGradient id="paint3_radial_77_40" cx="0" cy="0" r="1" gradientUnits="userSpaceOnUse" gradientTransform="translate(4.34038 1.3037) rotate(164.274) scale(20.2134 6.88675)">
<stop stop-color="#780CFF"/>
<stop offset="1" stop-color="#820BFF" stop-opacity="0"/>
</radialGradient>
</defs>
</svg>
