<svg width="34" height="34" viewBox="0 0 34 34" fill="none" xmlns="http://www.w3.org/2000/svg">
<path d="M16.902 33.804C26.2367 33.804 33.804 26.2367 33.804 16.902C33.804 7.56728 26.2367 0 16.902 0C7.56728 0 0 7.56728 0 16.902C0 26.2367 7.56728 33.804 16.902 33.804Z" fill="#55ACEE"/>
<path d="M27.2551 12.147C26.5308 12.4682 25.7516 12.6854 24.9345 12.7824C25.7688 12.2826 26.4091 11.4917 26.7113 10.5477C25.9306 11.0108 25.0656 11.3467 24.1457 11.5278C23.4088 10.7429 22.3588 10.2524 21.1961 10.2524C18.9653 10.2524 17.156 12.0617 17.156 14.2925C17.156 14.6092 17.1919 14.9174 17.2612 15.2132C13.9035 15.0448 10.9265 13.4365 8.9337 10.9915C8.586 11.5881 8.38655 12.2826 8.38655 13.0228C8.38655 14.4242 9.10031 15.6613 10.1838 16.3856C9.52182 16.3648 8.89845 16.1831 8.35401 15.8797C8.35371 15.8969 8.35371 15.9141 8.35371 15.9309C8.35371 17.8884 9.74689 19.5212 11.5947 19.892C11.2561 19.9848 10.8984 20.034 10.5306 20.034C10.2696 20.034 10.0168 20.0089 9.77039 19.9619C10.2844 21.5666 11.7761 22.7348 13.5444 22.7676C12.1615 23.8514 10.4197 24.497 8.52635 24.497C8.20095 24.497 7.87857 24.478 7.56311 24.4404C9.35009 25.5871 11.4742 26.2557 13.7556 26.2557C21.1867 26.2557 25.2506 20.0996 25.2506 14.7604C25.2506 14.5854 25.2467 14.4109 25.2388 14.238C26.0288 13.6685 26.7137 12.9572 27.2551 12.147Z" fill="#F1F2F2"/>
</svg>
