<svg width="36" height="37" viewBox="0 0 36 37" fill="none" xmlns="http://www.w3.org/2000/svg">
<path d="M17.4792 0.719198C8.07647 1.1669 0.656433 8.99752 0.684957 18.4108C0.693642 21.2779 1.3858 23.984 2.60681 26.3751L0.732129 35.475C0.630719 35.9673 1.07467 36.3983 1.56367 36.2825L10.4805 34.1699C12.7714 35.311 15.3445 35.9702 18.0678 36.0117C27.6782 36.1585 35.6916 28.5276 35.9912 18.9207C36.3123 8.62278 27.8131 0.227049 17.4792 0.719198ZM28.1188 28.1327C25.5075 30.744 22.0354 32.1822 18.3425 32.1822C16.1801 32.1822 14.1098 31.697 12.189 30.7402L10.9472 30.1216L5.48026 31.4169L6.63102 25.8306L6.01924 24.6326C5.02208 22.6798 4.51648 20.568 4.51648 18.3562C4.51648 14.6631 5.95461 11.1912 8.56598 8.5797C11.154 5.99166 14.6827 4.53012 18.3427 4.53012C22.0357 4.5302 25.5076 5.96833 28.1189 8.57962C30.7303 11.191 32.1684 14.6629 32.1685 18.3559C32.1684 22.016 30.7069 25.5447 28.1188 28.1327Z" fill="#25D366"/>
<path d="M26.912 22.1855L23.4917 21.2034C23.0421 21.0743 22.5578 21.2019 22.2302 21.5357L21.3938 22.3879C21.0411 22.7472 20.506 22.8627 20.0392 22.6738C18.4212 22.019 15.0177 18.9929 14.1486 17.4793C13.8978 17.0426 13.9393 16.4968 14.2472 16.0983L14.9774 15.1536C15.2635 14.7835 15.3238 14.2864 15.1346 13.8586L13.6957 10.604C13.351 9.82447 12.3549 9.59756 11.7041 10.1479C10.7495 10.9553 9.61688 12.1822 9.47919 13.5414C9.23644 15.9378 10.2642 18.9586 14.1505 22.5859C18.6403 26.7764 22.2357 27.33 24.5767 26.7629C25.9044 26.4413 26.9655 25.152 27.6352 24.0964C28.0918 23.3766 27.7313 22.4208 26.912 22.1855Z" fill="#25D366"/>
</svg>
